<svg xmlns="http://www.w3.org/2000/svg" width="15" height="16" viewBox="0 0 15 16">
  <path fill="#000" d="M14.4103719.627690393C13.6242281-.20906288 12.3495849-.209305076 11.562921.627413597L11.0194828 1.20581272C10.72756.895144197 10.2547294.895144197 9.96283905 1.20581272 9.67088366 1.51623905 9.67088366 2.02004175 9.96283905 2.33046808L10.138903 2.51796254 4.26832743 8.7666591 4.2678073 8.7666591 2.23003607 10.9357337C2.06808064 11.1081082 1.9726043 11.338679 1.96233174 11.5821899L1.95745552 11.6978905C1.95745552 11.6984441 1.95745552 11.6989285 1.95745552 11.6994821L1.8752425 13.6614097C1.87186165 13.7525101 1.90394716 13.8408079 1.96428223 13.9052667 2.02120394 13.9661271 2.09902836 14 2.17981103 14 2.18419963 14 2.18855572 14 2.19346444 13.9997232L3.17078843 13.9536713 3.17130856 13.9536713 3.76679222 13.9254728 4.03719472 13.9128094C4.33636691 13.8985544 4.62052035 13.7654503 4.8326358 13.5399656L12.6637758 5.20526778 12.8102574 5.36113833C12.9562188 5.5164207 13.1474316 5.59409648 13.3385793 5.59409648 13.5297595 5.59409648 13.7210048 5.5164207 13.8669337 5.36113833 14.1588566 5.0506774 14.1588566 4.54687471 13.8669337 4.23648298L14.4103394 3.65804925C15.1965481 2.82133058 15.1965481 1.46468586 14.4103719.627690393zM8.75529259 7.86544704L6.00510601 8.41765438 10.4911609 3.64279089 11.6072296 4.83010586 8.75529259 7.86544704zM2.34400439 14C1.04964153 14 0 14.4475932 0 15.0001713 0 15.5524558 1.04964153 16 2.34400439 16 3.63836725 16 4.6875 15.5525047 4.6875 15.0001713 4.6875 14.4475442 3.63836725 14 2.34400439 14z"/>
</svg>
